<svg width="512" height="512" viewBox="0 0 512 512" fill="none" xmlns="http://www.w3.org/2000/svg">
  <!-- Fundo com gradiente suave (opcional, mantendo transparência) -->
  <rect x="40" y="40" width="432" height="432" rx="100" fill="url(#paint0_linear)" fill-opacity="0.1"/>
  
  <!-- Sombra interna do botão Play para profundidade -->
  <path d="M190 145.7C190 128.4 208.7 117.6 223.7 126.2L428.2 244.2C443.2 252.9 443.2 274.5 428.2 283.1L223.7 401.1C208.7 409.7 190 398.9 190 381.6V145.7Z" fill="url(#paint1_linear)" />
  
  <!-- Detalhe de "Brilho" no topo do botão para aspecto premium -->
  <path d="M190 145.7C190 128.4 208.7 117.6 223.7 126.2L428.2 244.2C443.2 252.9 443.2 274.5 428.2 283.1L223.7 401.1C208.7 409.7 190 398.9 190 381.6V145.7Z" fill="white" fill-opacity="0.1"/>

  <defs>
    <linearGradient id="paint0_linear" x1="40" y1="40" x2="472" y2="472" gradientUnits="userSpaceOnUse">
      <stop stop-color="#E50914"/>
      <stop offset="1" stop-color="#B80710"/>
    </linearGradient>
    <linearGradient id="paint1_linear" x1="190" y1="122.5" x2="440" y2="263.7" gradientUnits="userSpaceOnUse">
      <stop stop-color="#FF1F2B"/>
      <stop offset="1" stop-color="#E50914"/>
    </linearGradient>
  </defs>
</svg>
